<?xml version="1.0" encoding="utf-8"?>
<svg version="1.1" xmlns:xlink="http://www.w3.org/1999/xlink" width="72px" height="69px" xmlns="http://www.w3.org/2000/svg">
  <defs>
    <mask fill="white" id="clip2">
      <path d="M 72 34.5  C 72 53.82  56.16 69  36 69  C 15.84 69  0 53.82  0 34.5  C 0 15.18  15.84 0  36 0  C 56.16 0  72 15.18  72 34.5  Z M 10.1647058823529 34.7029411764706  C 10.1647058823529 48.6815294117647  21.6254117647059 59.6647058823529  36.2117647058824 59.6647058823529  C 50.7981176470588 59.6647058823529  62.2588235294118 48.6815294117647  62.2588235294118 34.7029411764706  C 62.2588235294118 20.7243529411765  50.7981176470588 9.74117647058823  36.2117647058824 9.74117647058823  C 21.6254117647059 9.74117647058823  10.1647058823529 20.7243529411765  10.1647058823529 34.7029411764706  Z " fill-rule="evenodd" />
    </mask>
  </defs>
  <g transform="matrix(1 0 0 1 -11 0 )">
    <path d="M 72 34.5  C 72 53.82  56.16 69  36 69  C 15.84 69  0 53.82  0 34.5  C 0 15.18  15.84 0  36 0  C 56.16 0  72 15.18  72 34.5  Z M 10.1647058823529 34.7029411764706  C 10.1647058823529 48.6815294117647  21.6254117647059 59.6647058823529  36.2117647058824 59.6647058823529  C 50.7981176470588 59.6647058823529  62.2588235294118 48.6815294117647  62.2588235294118 34.7029411764706  C 62.2588235294118 20.7243529411765  50.7981176470588 9.74117647058823  36.2117647058824 9.74117647058823  C 21.6254117647059 9.74117647058823  10.1647058823529 20.7243529411765  10.1647058823529 34.7029411764706  Z " fill-rule="nonzero" fill="#ffffff" stroke="none" transform="matrix(1 0 0 1 11 0 )" />
    <path d="M 72 34.5  C 72 53.82  56.16 69  36 69  C 15.84 69  0 53.82  0 34.5  C 0 15.18  15.84 0  36 0  C 56.16 0  72 15.18  72 34.5  Z " stroke-width="2" stroke="#797979" fill="none" transform="matrix(1 0 0 1 11 0 )" mask="url(#clip2)" />
    <path d="M 10.1647058823529 34.7029411764706  C 10.1647058823529 48.6815294117647  21.6254117647059 59.6647058823529  36.2117647058824 59.6647058823529  C 50.7981176470588 59.6647058823529  62.2588235294118 48.6815294117647  62.2588235294118 34.7029411764706  C 62.2588235294118 20.7243529411765  50.7981176470588 9.74117647058823  36.2117647058824 9.74117647058823  C 21.6254117647059 9.74117647058823  10.1647058823529 20.7243529411765  10.1647058823529 34.7029411764706  Z " stroke-width="2" stroke="#797979" fill="none" transform="matrix(1 0 0 1 11 0 )" mask="url(#clip2)" />
  </g>
</svg>