<?xml version="1.0" encoding="utf-8"?>
<svg version="1.1" xmlns:xlink="http://www.w3.org/1999/xlink" width="93px" height="47px" xmlns="http://www.w3.org/2000/svg">
  <defs>
    <mask fill="white" id="clip3">
      <path d="M 46.5 0  C 72.5139599832051 0  92.9590743936007 20.6386606533508  92.9999385409705 47  L 0 47  C 0 20.68  20.46 0  46.5 0  Z M 92.9999386348009 46.9210568841353  C 92.9999795399736 46.9473656060562  93 46.9736799830245  92.9999386348009 46.9210568841353  Z " fill-rule="evenodd" />
    </mask>
  </defs>
  <g transform="matrix(1 0 0 1 -18 -744 )">
    <path d="M 46.5 0  C 72.5139599832051 0  92.9590743936007 20.6386606533508  92.9999385409705 47  L 0 47  C 0 20.68  20.46 0  46.5 0  Z M 92.9999386348009 46.9210568841353  C 92.9999795399736 46.9473656060562  93 46.9736799830245  92.9999386348009 46.9210568841353  Z " fill-rule="nonzero" fill="#ffffff" stroke="none" fill-opacity="0" transform="matrix(1 0 0 1 18 744 )" />
    <path d="M 46.5 0  C 72.5139599832051 0  92.9590743936007 20.6386606533508  92.9999385409705 47  L 0 47  C 0 20.68  20.46 0  46.5 0  Z " stroke-width="18" stroke="#797979" fill="none" transform="matrix(1 0 0 1 18 744 )" mask="url(#clip3)" />
    <path d="M 92.9999386348009 46.9210568841353  C 92.9999795399736 46.9473656060562  93 46.9736799830245  92.9999386348009 46.9210568841353  Z " stroke-width="18" stroke="#797979" fill="none" transform="matrix(1 0 0 1 18 744 )" mask="url(#clip3)" />
  </g>
</svg>