<?xml version="1.0" encoding="utf-8"?>
<svg version="1.1" xmlns:xlink="http://www.w3.org/1999/xlink" width="10px" height="10px" xmlns="http://www.w3.org/2000/svg">
  <g transform="matrix(1 0 0 1 -1143 -497 )">
    <path d="M 1148 497  C 1150.8 497  1153 499.2  1153 502  C 1153 504.8  1150.8 507  1148 507  C 1145.2 507  1143 504.8  1143 502  C 1143 499.2  1145.2 497  1148 497  Z " fill-rule="nonzero" fill="#333333" stroke="none" />
    <path d="M 1148 497.5  C 1150.52 497.5  1152.5 499.48  1152.5 502  C 1152.5 504.52  1150.52 506.5  1148 506.5  C 1145.48 506.5  1143.5 504.52  1143.5 502  C 1143.5 499.48  1145.48 497.5  1148 497.5  Z " stroke-width="1" stroke="#797979" fill="none" />
  </g>
</svg>