<?xml version="1.0" encoding="utf-8"?>
<svg version="1.1" xmlns:xlink="http://www.w3.org/1999/xlink" width="10px" height="10px" xmlns="http://www.w3.org/2000/svg">
  <g transform="matrix(1 0 0 1 -1250 -421 )">
    <path d="M 1255 421  C 1257.8 421  1260 423.2  1260 426  C 1260 428.8  1257.8 431  1255 431  C 1252.2 431  1250 428.8  1250 426  C 1250 423.2  1252.2 421  1255 421  Z " fill-rule="nonzero" fill="#aaaaaa" stroke="none" />
    <path d="M 1255 421.5  C 1257.52 421.5  1259.5 423.48  1259.5 426  C 1259.5 428.52  1257.52 430.5  1255 430.5  C 1252.48 430.5  1250.5 428.52  1250.5 426  C 1250.5 423.48  1252.48 421.5  1255 421.5  Z " stroke-width="1" stroke="#797979" fill="none" />
  </g>
</svg>