<?xml version="1.0" encoding="utf-8"?>
<svg version="1.1" xmlns:xlink="http://www.w3.org/1999/xlink" width="11px" height="11px" xmlns="http://www.w3.org/2000/svg">
  <g transform="matrix(1 0 0 1 -307 -123 )">
    <path d="M 312.5 123  C 315.58 123  318 125.42  318 128.5  C 318 131.58  315.58 134  312.5 134  C 309.42 134  307 131.58  307 128.5  C 307 125.42  309.42 123  312.5 123  Z " fill-rule="nonzero" fill="#ffffff" stroke="none" />
    <path d="M 312.5 123.5  C 315.3 123.5  317.5 125.7  317.5 128.5  C 317.5 131.3  315.3 133.5  312.5 133.5  C 309.7 133.5  307.5 131.3  307.5 128.5  C 307.5 125.7  309.7 123.5  312.5 123.5  Z " stroke-width="1" stroke="#797979" fill="none" />
  </g>
</svg>