<?xml version="1.0" encoding="utf-8"?>
<svg version="1.1" xmlns:xlink="http://www.w3.org/1999/xlink" width="31px" height="23px" xmlns="http://www.w3.org/2000/svg">
  <defs>
    <mask fill="white" id="clip5">
      <path d="M 10.5 0  C 16.3741199962076 0  20.9907587340389 5.70856571262894  20.9999861433291 13  L 0 13  C 0 5.72  4.62000000000001 0  10.5 0  Z M 20.9999861433421 12.9781646700799  C 20.999995379994 12.9854415506113  21 12.9927199953046  20.9999861433421 12.9781646700799  Z " fill-rule="evenodd" />
    </mask>
    <filter x="1290px" y="394px" width="31px" height="23px" filterUnits="userSpaceOnUse" id="filter6">
      <feOffset dx="5" dy="5" in="SourceAlpha" result="shadowOffsetInner" />
      <feGaussianBlur stdDeviation="2.5" in="shadowOffsetInner" result="shadowGaussian" />
      <feComposite in2="shadowGaussian" operator="atop" in="SourceAlpha" result="shadowComposite" />
      <feColorMatrix type="matrix" values="0 0 0 0 0  0 0 0 0 0  0 0 0 0 0  0 0 0 0.349019607843137 0  " in="shadowComposite" />
    </filter>
    <g id="widget7">
      <path d="M 10.5 0  C 16.3741199962076 0  20.9907587340389 5.70856571262894  20.9999861433291 13  L 0 13  C 0 5.72  4.62000000000001 0  10.5 0  Z M 20.9999861433421 12.9781646700799  C 20.999995379994 12.9854415506113  21 12.9927199953046  20.9999861433421 12.9781646700799  Z " fill-rule="nonzero" fill="#d9001b" stroke="none" transform="matrix(1 0 0 1 1290 394 )" />
      <path d="M 10.5 0  C 16.3741199962076 0  20.9907587340389 5.70856571262894  20.9999861433291 13  L 0 13  C 0 5.72  4.62000000000001 0  10.5 0  Z " stroke-width="2" stroke="#797979" fill="none" transform="matrix(1 0 0 1 1290 394 )" mask="url(#clip5)" />
      <path d="M 20.9999861433421 12.9781646700799  C 20.999995379994 12.9854415506113  21 12.9927199953046  20.9999861433421 12.9781646700799  Z " stroke-width="2" stroke="#797979" fill="none" transform="matrix(1 0 0 1 1290 394 )" mask="url(#clip5)" />
    </g>
  </defs>
  <g transform="matrix(1 0 0 1 -1290 -394 )">
    <use xlink:href="#widget7" filter="url(#filter6)" />
    <use xlink:href="#widget7" />
  </g>
</svg>