<?xml version="1.0" encoding="utf-8"?>
<svg version="1.1" xmlns:xlink="http://www.w3.org/1999/xlink" width="11px" height="11px" xmlns="http://www.w3.org/2000/svg">
  <g transform="matrix(1 0 0 1 -323 -123 )">
    <path d="M 328.5 123  C 331.58 123  334 125.42  334 128.5  C 334 131.58  331.58 134  328.5 134  C 325.42 134  323 131.58  323 128.5  C 323 125.42  325.42 123  328.5 123  Z " fill-rule="nonzero" fill="#7f7f7f" stroke="none" />
    <path d="M 328.5 123.5  C 331.3 123.5  333.5 125.7  333.5 128.5  C 333.5 131.3  331.3 133.5  328.5 133.5  C 325.7 133.5  323.5 131.3  323.5 128.5  C 323.5 125.7  325.7 123.5  328.5 123.5  Z " stroke-width="1" stroke="#797979" fill="none" />
  </g>
</svg>