<?xml version="1.0" encoding="utf-8"?>
<svg version="1.1" xmlns:xlink="http://www.w3.org/1999/xlink" width="46px" height="46px" xmlns="http://www.w3.org/2000/svg">
  <defs>
    <mask fill="white" id="clip23">
      <path d="M 45.9999911099594 0.0237405123129975  L 46 45.0000312597709  L 0.00263146114015752 45.0000647006029  C 0.000878580444203673 44.8336189334256  0 44.6669292731601  0 44.5  C 0 19.58  19.5799962159349 0  44.499991399852 0  C 45.002200416038 0  45.5022406583359 0.00795217245956792  45.9999911099594 0.0237405123129975  Z " fill-rule="evenodd" />
    </mask>
  </defs>
  <g transform="matrix(1 0 0 1 -202 -931 )">
    <path d="M 45.9999911099594 0.0237405123129975  L 46 45.0000312597709  L 0.00263146114015752 45.0000647006029  C 0.000878580444203673 44.8336189334256  0 44.6669292731601  0 44.5  C 0 19.58  19.5799962159349 0  44.499991399852 0  C 45.002200416038 0  45.5022406583359 0.00795217245956792  45.9999911099594 0.0237405123129975  Z " fill-rule="nonzero" fill="#d7d7d7" stroke="none" transform="matrix(1 0 0 1 202 931 )" />
    <path d="M 45.9999911099594 0.0237405123129975  L 46 45.0000312597709  L 0.00263146114015752 45.0000647006029  C 0.000878580444203673 44.8336189334256  0 44.6669292731601  0 44.5  C 0 19.58  19.5799962159349 0  44.499991399852 0  C 45.002200416038 0  45.5022406583359 0.00795217245956792  45.9999911099594 0.0237405123129975  Z " stroke-width="2" stroke="#797979" fill="none" transform="matrix(1 0 0 1 202 931 )" mask="url(#clip23)" />
  </g>
</svg>