<?xml version="1.0" encoding="utf-8"?>
<svg version="1.1" xmlns:xlink="http://www.w3.org/1999/xlink" width="44px" height="46px" xmlns="http://www.w3.org/2000/svg">
  <defs>
    <mask fill="white" id="clip24">
      <path d="M 43.9999914964829 0.0237405123129975  L 44 45.0000312597709  L 0.00251704978623763 45.0000647006029  C 0.000840381294455687 44.8336189334256  0 44.6669292731601  0 44.5  C 0 19.58  18.7286920326333 0  42.5652091650758 0  C 43.045583006645 0  43.523882368843 0.00795217245956792  43.9999914964829 0.0237405123129975  Z " fill-rule="evenodd" />
    </mask>
  </defs>
  <g transform="matrix(1 0 0 1 -247 -974 )">
    <path d="M 43.9999914964829 0.0237405123129975  L 44 45.0000312597709  L 0.00251704978623763 45.0000647006029  C 0.000840381294455687 44.8336189334256  0 44.6669292731601  0 44.5  C 0 19.58  18.7286920326333 0  42.5652091650758 0  C 43.045583006645 0  43.523882368843 0.00795217245956792  43.9999914964829 0.0237405123129975  Z " fill-rule="nonzero" fill="#7f7f7f" stroke="none" transform="matrix(1 0 0 1 247 974 )" />
    <path d="M 43.9999914964829 0.0237405123129975  L 44 45.0000312597709  L 0.00251704978623763 45.0000647006029  C 0.000840381294455687 44.8336189334256  0 44.6669292731601  0 44.5  C 0 19.58  18.7286920326333 0  42.5652091650758 0  C 43.045583006645 0  43.523882368843 0.00795217245956792  43.9999914964829 0.0237405123129975  Z " stroke-width="2" stroke="#797979" fill="none" transform="matrix(1 0 0 1 247 974 )" mask="url(#clip24)" />
  </g>
</svg>