<?xml version="1.0" encoding="utf-8"?>
<svg version="1.1" xmlns:xlink="http://www.w3.org/1999/xlink" width="71px" height="70px" xmlns="http://www.w3.org/2000/svg">
  <defs>
    <mask fill="white" id="clip1">
      <path d="M 71 35  C 71 54.6  55.38 70  35.5 70  C 15.62 70  0 54.6  0 35  C 0 15.4  15.62 0  35.5 0  C 55.38 0  71 15.4  71 35  Z M 10.0235294117647 35.2058823529412  C 10.0235294117647 49.3870588235294  21.3250588235294 60.5294117647059  35.7088235294118 60.5294117647059  C 50.0925882352941 60.5294117647059  61.3941176470588 49.3870588235294  61.3941176470588 35.2058823529412  C 61.3941176470588 21.0247058823529  50.0925882352941 9.88235294117647  35.7088235294118 9.88235294117647  C 21.3250588235294 9.88235294117647  10.0235294117647 21.0247058823529  10.0235294117647 35.2058823529412  Z " fill-rule="evenodd" />
    </mask>
  </defs>
  <g transform="matrix(1 0 0 1 -122 -99 )">
    <path d="M 71 35  C 71 54.6  55.38 70  35.5 70  C 15.62 70  0 54.6  0 35  C 0 15.4  15.62 0  35.5 0  C 55.38 0  71 15.4  71 35  Z M 10.0235294117647 35.2058823529412  C 10.0235294117647 49.3870588235294  21.3250588235294 60.5294117647059  35.7088235294118 60.5294117647059  C 50.0925882352941 60.5294117647059  61.3941176470588 49.3870588235294  61.3941176470588 35.2058823529412  C 61.3941176470588 21.0247058823529  50.0925882352941 9.88235294117647  35.7088235294118 9.88235294117647  C 21.3250588235294 9.88235294117647  10.0235294117647 21.0247058823529  10.0235294117647 35.2058823529412  Z " fill-rule="nonzero" fill="#ffffff" stroke="none" transform="matrix(1 0 0 1 122 99 )" />
    <path d="M 71 35  C 71 54.6  55.38 70  35.5 70  C 15.62 70  0 54.6  0 35  C 0 15.4  15.62 0  35.5 0  C 55.38 0  71 15.4  71 35  Z " stroke-width="2" stroke="#797979" fill="none" transform="matrix(1 0 0 1 122 99 )" mask="url(#clip1)" />
    <path d="M 10.0235294117647 35.2058823529412  C 10.0235294117647 49.3870588235294  21.3250588235294 60.5294117647059  35.7088235294118 60.5294117647059  C 50.0925882352941 60.5294117647059  61.3941176470588 49.3870588235294  61.3941176470588 35.2058823529412  C 61.3941176470588 21.0247058823529  50.0925882352941 9.88235294117647  35.7088235294118 9.88235294117647  C 21.3250588235294 9.88235294117647  10.0235294117647 21.0247058823529  10.0235294117647 35.2058823529412  Z " stroke-width="2" stroke="#797979" fill="none" transform="matrix(1 0 0 1 122 99 )" mask="url(#clip1)" />
  </g>
</svg>